<svg xmlns="http://www.w3.org/2000/svg" viewBox="0 0 240 240" width="240" height="240" preserveAspectRatio="xMidYMid meet" style="width: 100%; height: 100%; transform: translate3d(0px, 0px, 0px);"><defs><clipPath id="__lottie_element_20"><rect width="240" height="240" x="0" y="0"></rect></clipPath></defs><g clip-path="url(#__lottie_element_20)"><g transform="matrix(10,0,0,10,120,120)" opacity="0.35000000000000003" style="display: block;"><g opacity="1" transform="matrix(1,0,0,1,0,0)"><path stroke-linecap="round" stroke-linejoin="round" fill-opacity="0" stroke="rgb(0,0,0)" stroke-opacity="1" stroke-width="3" d=" M-9.5,-5.480622291564941 C-9.5,-5.480622291564941 -9.5,5.480622291564941 -9.5,5.480622291564941"></path></g></g><g transform="matrix(10,0,0,10,120,120)" opacity="1" style="display: block;"><g opacity="1" transform="matrix(1,0,0,1,0,0)"><path stroke-linecap="round" stroke-linejoin="round" fill-opacity="0" stroke="rgb(0,0,0)" stroke-opacity="1" stroke-width="3" d=" M-4.5,-1.519377589225769 C-4.5,-1.519377589225769 -4.5,1.519377589225769 -4.5,1.519377589225769"></path></g></g><g transform="matrix(10,0,0,10,120,120)" opacity="0.35000000000000003" style="display: block;"><g opacity="1" transform="matrix(1,0,0,1,0,0)"><path stroke-linecap="round" stroke-linejoin="round" fill-opacity="0" stroke="rgb(0,0,0)" stroke-opacity="1" stroke-width="3" d=" M0.5,-6.975778102874756 C0.5,-6.975778102874756 0.5,7.025293350219727 0.5,7.025293350219727"></path></g></g><g transform="matrix(10,0,0,10,120,120)" opacity="1" style="display: block;"><g opacity="1" transform="matrix(1,0,0,1,0,0)"><path stroke-linecap="round" stroke-linejoin="round" fill-opacity="0" stroke="rgb(0,0,0)" stroke-opacity="1" stroke-width="3" d=" M5.5,-3.5193777084350586 C5.5,-3.5193777084350586 5.5,3.5193777084350586 5.5,3.5193777084350586"></path></g></g><g transform="matrix(10,0,0,10,120,120)" opacity="0.35000000000000003" style="display: block;"><g opacity="1" transform="matrix(1,0,0,1,0,0)"><path stroke-linecap="round" stroke-linejoin="round" fill-opacity="0" stroke="rgb(0,0,0)" stroke-opacity="1" stroke-width="3" d=" M10.5,-5.480622291564941 C10.5,-5.480622291564941 10.5,5.480622291564941 10.5,5.480622291564941"></path></g></g></g></svg>