<?xml version="1.0" standalone="no"?>
<!DOCTYPE svg PUBLIC "-//W3C//DTD SVG 20010904//EN"
 "http://www.w3.org/TR/2001/REC-SVG-20010904/DTD/svg10.dtd">
<svg version="1.0" xmlns="http://www.w3.org/2000/svg"
 width="512.000000pt" height="512.000000pt" viewBox="0 0 512.000000 512.000000"
 preserveAspectRatio="xMidYMid meet">
<metadata>
Created by potrace 1.14, written by Peter Selinger 2001-2017
</metadata>
<g transform="translate(0.000000,512.000000) scale(0.100000,-0.100000)"
fill="#000000" stroke="none">
<path d="M2430 4554 c-213 -25 -344 -56 -494 -115 -563 -223 -961 -726 -1057
-1334 -19 -116 -16 -399 5 -515 71 -403 252 -732 549 -998 221 -198 528 -349
809 -398 l98 -17 0 -193 c0 -229 11 -274 86 -349 111 -111 290 -90 375 43 44
70 49 100 49 313 l0 196 81 17 c264 57 544 200 753 384 637 564 759 1514 284
2220 -77 114 -189 242 -283 323 -260 224 -528 351 -855 405 -86 15 -336 26
-400 18z m1050 -627 l214 -14 48 -54 c105 -117 235 -347 287 -506 32 -102 60
-242 72 -372 18 -183 -9 -416 -67 -593 l-16 -48 -244 0 -244 0 0 -68 c0 -90
-17 -221 -36 -274 -21 -61 -50 -88 -94 -88 -70 0 -85 45 -94 275 -12 287 -74
463 -180 514 -55 27 -101 26 -156 -1 -105 -53 -147 -183 -160 -503 -10 -230
-21 -276 -79 -328 -94 -85 -225 -40 -286 97 -31 71 -45 143 -52 269 l-6 107
-643 0 -642 0 -21 63 c-66 198 -85 475 -49 697 42 261 134 482 286 686 97 130
89 125 253 136 336 21 567 26 1114 22 319 -2 677 -10 795 -17z m-401 -1383
c46 -58 69 -171 81 -399 11 -205 25 -259 83 -319 78 -81 210 -90 303 -19 61
45 124 210 124 322 0 73 -3 72 146 70 74 0 136 -4 138 -7 2 -4 -19 -48 -48
-98 -410 -713 -1283 -984 -2022 -629 -268 129 -496 340 -657 607 l-67 113 532
3 c293 1 539 0 546 -3 6 -2 12 -21 12 -42 0 -65 29 -175 64 -250 42 -87 107
-155 183 -190 49 -22 65 -25 142 -21 74 3 95 9 142 34 68 39 120 107 149 193
17 53 23 104 30 276 10 237 25 317 68 368 20 23 27 22 51 -9z m-379 -1559 c0
-205 -6 -232 -60 -260 -51 -26 -95 -13 -131 41 -17 26 -19 48 -19 211 l0 182
88 4 c48 1 95 4 105 5 16 2 17 -13 17 -183z"/>
</g>
</svg>
